<?xml version="1.0" standalone="no"?>
<!DOCTYPE svg PUBLIC "-//W3C//DTD SVG 20010904//EN"
 "http://www.w3.org/TR/2001/REC-SVG-20010904/DTD/svg10.dtd">
<svg version="1.0" xmlns="http://www.w3.org/2000/svg"
 width="869.000000pt" height="869.000000pt" viewBox="0 0 869.000000 869.000000"
 preserveAspectRatio="xMidYMid meet">
<metadata>
Created by potrace 1.14, written by Peter Selinger 2001-2017
</metadata>
<g transform="translate(0.000000,869.000000) scale(0.100000,-0.100000)"
fill="#000000" stroke="none">
<path d="M3725 5110 c3 -5 18 -10 33 -9 24 0 25 1 7 9 -28 12 -47 12 -40 0z"/>
<path d="M3818 5112 c-16 -2 -28 -7 -28 -12 0 -5 -16 -10 -37 -12 -42 -4 -40
3 -47 -158 -3 -80 -2 -110 5 -100 8 11 9 4 4 -25 -3 -22 -8 -78 -9 -125 -3
-65 -2 -73 3 -35 l8 50 1 -65 c1 -39 -2 -60 -7 -52 -7 11 -9 11 -14 -2 -4 -10
-1 -16 8 -16 18 0 18 -8 2 -35 -10 -18 -22 -20 -95 -20 -62 0 -81 -3 -77 -12
5 -14 -31 -18 -39 -5 -7 11 -119 16 -213 10 -52 -4 -65 3 -68 37 0 6 -4 16 -8
23 -5 6 -4 12 2 12 6 0 8 7 5 15 -4 8 -2 15 4 15 10 0 10 49 -1 66 -3 6 -2 16
3 23 4 8 1 21 -8 32 -9 10 -19 14 -22 9 -7 -12 -1 126 7 160 11 45 12 54 14
117 2 55 -1 65 -22 82 -21 17 -55 19 -45 2 3 -4 -4 -8 -15 -8 -17 -2 -18 1 -9
13 8 8 8 14 2 14 -5 0 -12 -7 -15 -14 -5 -11 -13 -13 -35 -7 -16 5 -35 5 -43
1 -7 -5 -17 -6 -21 -4 -9 6 -9 5 -10 -111 -1 -44 3 -89 7 -99 5 -11 5 -17 -1
-14 -11 8 -11 -109 1 -119 4 -5 6 -3 2 2 -3 6 -2 17 3 25 10 17 2 -125 -10
-161 -5 -17 -4 -31 3 -38 7 -7 8 -11 0 -11 -14 0 -17 -158 -3 -175 8 -9 6 -14
-7 -19 -15 -6 -15 -8 -3 -16 8 -6 10 -10 5 -10 -6 0 -10 -24 -9 -52 1 -72 2
-80 14 -73 6 3 10 -1 10 -9 0 -10 -6 -13 -15 -10 -11 5 -13 2 -9 -10 3 -9 11
-13 16 -10 6 4 8 1 6 -7 -3 -8 -11 -13 -17 -12 -6 2 -11 -2 -11 -7 0 -6 6 -10
14 -10 9 0 12 -8 8 -26 -3 -19 -7 -22 -13 -12 -6 9 -9 7 -9 -9 0 -13 4 -23 9
-23 15 0 6 -51 -10 -61 -8 -5 -9 -9 -3 -9 7 0 10 -20 7 -60 -3 -41 -1 -60 7
-60 8 0 10 -21 6 -67 -5 -84 -4 -81 -16 -63 -7 11 -8 5 -4 -20 4 -19 12 -39
19 -45 6 -5 14 -17 18 -25 5 -13 6 -13 6 1 1 12 8 15 26 11 19 -3 25 0 25 14
0 16 2 16 10 4 5 -8 24 -15 42 -16 30 -3 31 -2 8 6 -24 8 -23 8 8 9 24 1 31
-3 26 -11 -5 -10 -4 -10 6 -1 16 15 18 23 26 118 3 38 8 73 10 76 2 4 -2 10
-8 12 -10 4 -10 8 1 15 8 6 9 12 3 15 -5 4 -8 35 -7 69 3 57 2 59 -4 18 -9
-54 -14 -36 -11 40 1 30 7 58 13 62 9 6 9 10 -1 17 -11 6 -11 11 2 24 11 10
12 18 6 22 -8 5 -7 11 1 21 7 9 9 31 6 59 l-7 45 54 -4 c29 -2 59 -6 65 -10 6
-4 11 -2 11 4 0 20 112 9 140 -14 l25 -21 -19 23 c-11 12 -17 22 -15 23 2 0
12 2 22 4 9 2 17 0 17 -3 0 -4 45 -7 99 -6 l100 0 -2 -52 c-2 -29 -5 -55 -8
-58 -3 -3 -2 -34 2 -68 4 -35 6 -97 4 -138 -2 -41 -1 -69 2 -62 10 24 19 11
15 -20 -4 -28 -6 -30 -13 -13 -4 12 -7 -8 -6 -50 1 -38 -3 -90 -7 -114 -8 -42
-7 -44 13 -38 11 3 21 2 21 -2 0 -3 29 -6 65 -6 62 0 85 9 48 18 -10 2 -2 3
18 1 45 -4 80 26 60 50 -8 10 -9 16 -1 21 6 3 8 11 5 16 -4 5 0 9 7 9 9 0 9 3
-2 10 -12 7 -12 12 -2 22 14 14 16 32 2 23 -14 -8 -13 48 1 62 8 8 8 13 0 17
-6 4 -11 12 -11 17 0 6 6 7 13 3 9 -6 9 -5 0 7 -6 8 -12 47 -12 89 0 42 -5 76
-10 78 -7 2 -6 13 2 30 8 17 12 61 11 115 -1 48 2 87 6 87 4 0 3 22 -2 50 -5
27 -7 74 -5 105 2 30 0 55 -4 55 -5 0 -9 25 -9 56 0 30 3 53 8 51 4 -3 8 41 8
96 1 68 -1 90 -6 67 -7 -32 -7 -30 -8 20 0 35 2 48 7 36 5 -12 10 -15 14 -9 4
6 1 16 -7 22 -10 9 -12 21 -5 49 7 34 13 119 10 149 -2 20 -40 36 -56 23 -7
-6 -15 -7 -17 -3 -1 4 -15 7 -30 5z m87 -581 c3 -5 2 -12 -3 -15 -5 -3 -9 1
-9 9 0 17 3 19 12 6z m-307 -48 c-10 -2 -26 -2 -35 0 -10 3 -2 5 17 5 19 0 27
-2 18 -5z m-591 -70 c-2 -16 -4 -5 -4 22 0 28 2 40 4 28 2 -13 2 -35 0 -50z
m890 -345 c-3 -7 -5 -2 -5 12 0 14 2 19 5 13 2 -7 2 -19 0 -25z m-180 -108
c-2 -11 -6 -22 -9 -26 -4 -3 -5 2 -3 13 2 10 4 21 4 26 1 4 3 7 6 7 3 0 4 -9
2 -20z m-660 -266 c-3 -3 -12 -4 -19 -1 -8 3 -5 6 6 6 11 1 17 -2 13 -5z m740
-10 c-3 -3 -12 -4 -19 -1 -8 3 -5 6 6 6 11 1 17 -2 13 -5z"/>
<path d="M4395 5110 c-22 -4 -33 -8 -25 -10 8 -2 -3 -6 -25 -9 -43 -7 -42 -4
-46 -100 -1 -26 4 -46 11 -51 10 -6 8 -9 -6 -13 -16 -4 -17 -5 -1 -6 9 0 17
-6 17 -12 0 -5 -4 -8 -9 -4 -5 3 -13 1 -16 -5 -4 -6 -1 -9 7 -8 7 2 11 -3 9
-12 -3 -8 -5 -37 -6 -65 -1 -27 -3 -52 -4 -55 -2 -3 -4 -43 -6 -90 -2 -59 0
-74 5 -50 7 29 8 24 7 -30 0 -36 -5 -68 -11 -72 -7 -5 -7 -8 2 -8 9 0 10 -6 4
-17 -4 -10 -9 -47 -11 -83 -2 -36 -5 -69 -8 -75 -2 -5 3 -1 12 10 15 19 15 19
11 -5 -2 -14 -10 -24 -17 -22 -11 2 -10 -1 1 -10 11 -9 13 -24 9 -53 l-5 -40
-5 40 c-2 22 -5 -23 -6 -100 -2 -77 -4 -152 -6 -168 -3 -15 -1 -29 2 -32 4 -2
8 8 9 22 1 15 5 29 8 32 4 3 4 -16 1 -44 -3 -27 -10 -51 -16 -53 -6 -2 -7 -12
-2 -25 11 -30 3 -110 -14 -137 -3 -6 -1 -10 5 -10 8 0 8 -6 0 -20 -17 -31 -4
-40 63 -42 l62 -1 -60 -6 c-57 -6 -59 -6 -32 -19 16 -6 25 -8 22 -2 -6 9 12
11 113 12 18 0 35 5 39 11 11 18 10 102 -1 110 -8 5 -8 9 0 15 7 4 12 55 13
137 1 72 3 146 5 165 l4 35 78 -1 c71 -1 79 -3 93 -25 9 -13 31 -40 49 -60 17
-20 32 -42 32 -48 0 -6 5 -11 10 -11 6 0 10 -7 10 -15 0 -7 8 -19 18 -24 9 -6
14 -11 9 -11 -7 0 21 -50 34 -60 18 -14 77 -99 72 -104 -4 -3 -1 -6 6 -6 7 0
10 -4 6 -9 -3 -6 3 -14 12 -20 10 -6 15 -11 11 -11 -12 0 46 -60 59 -60 7 0
13 -7 13 -16 0 -11 5 -14 16 -10 9 3 39 7 67 7 l52 2 -40 8 c-30 6 -21 7 37 4
74 -3 76 -2 83 22 5 23 -5 47 -28 64 -5 3 -9 10 -10 15 -1 5 -5 8 -9 7 -5 -2
-8 2 -8 9 0 6 -17 32 -38 57 -20 25 -43 58 -50 72 -8 14 -27 41 -43 60 -16 19
-29 37 -29 41 0 5 -16 24 -35 45 -19 20 -32 39 -30 43 3 4 -4 15 -15 25 -25
23 -25 35 0 35 11 0 27 11 36 25 15 24 17 24 30 8 12 -17 13 -16 22 7 9 21 11
22 17 8 5 -14 10 -15 20 -5 7 7 11 15 9 19 -2 4 0 9 6 13 5 3 10 1 10 -5 0 -6
5 -8 10 -5 6 4 8 10 5 14 -4 7 47 81 95 138 5 7 10 14 10 17 0 3 5 17 12 33 6
15 12 31 13 36 2 4 4 8 5 10 3 3 11 45 13 75 1 12 8 22 16 22 10 0 11 4 3 13
-6 6 -9 27 -8 45 1 18 -1 35 -6 38 -5 3 -6 9 -3 14 3 5 1 11 -5 15 -6 4 -8 11
-4 16 8 13 -25 101 -35 94 -10 -6 -43 64 -36 76 4 5 1 9 -5 9 -6 0 -9 4 -6 8
3 5 -10 24 -30 43 -19 18 -32 39 -30 45 3 7 -2 10 -13 7 -11 -3 -21 2 -25 12
-3 9 -10 13 -16 10 -5 -3 -10 -1 -10 5 0 6 -5 8 -11 5 -6 -4 -21 3 -34 15 -14
13 -31 20 -40 16 -9 -3 -13 -2 -10 4 7 11 5 11 -40 14 -16 1 -29 6 -28 12 1 6
-3 11 -10 12 -7 0 -32 3 -57 6 -33 4 -38 3 -20 -3 25 -9 25 -9 2 -10 -12 -1
-34 6 -47 15 -14 9 -25 12 -25 6 0 -6 6 -13 13 -16 6 -4 1 -4 -13 0 -43 9
-168 14 -140 4 24 -8 24 -8 -7 -9 -18 -1 -33 4 -33 9 0 6 -8 10 -17 10 -15 0
-16 -2 -3 -10 8 -5 10 -10 4 -10 -6 0 -14 3 -18 7 -3 4 -12 8 -19 9 -7 1 -19
4 -27 7 -8 2 -33 1 -55 -3z m-78 -147 c-3 -10 -5 -4 -5 12 0 17 2 24 5 18 2
-7 2 -21 0 -30z m473 -68 c81 -8 80 -8 80 -17 0 -4 9 -8 20 -8 11 0 20 -7 20
-15 0 -8 4 -14 8 -12 10 2 61 -49 85 -87 15 -22 29 -68 28 -91 0 -5 -1 -37 -2
-70 -1 -33 -8 -72 -16 -87 -7 -16 -10 -28 -6 -28 5 0 -5 -12 -22 -26 -16 -14
-30 -29 -30 -32 0 -14 -48 -61 -57 -56 -4 3 -8 1 -8 -5 0 -6 -7 -8 -15 -5 -8
3 -17 0 -20 -8 -7 -17 -17 -18 -100 -16 -33 0 -107 1 -163 2 l-104 1 5 39 c4
28 3 36 -4 25 -7 -9 -8 5 -4 46 7 74 8 130 5 220 -4 101 3 215 13 215 4 0 6 4
3 8 -3 5 7 7 22 5 15 -3 38 0 52 5 24 9 82 8 210 -3z"/>
<path d="M4905 4620 c-3 -5 -1 -10 4 -10 6 0 11 5 11 10 0 6 -2 10 -4 10 -3 0
-8 -4 -11 -10z"/>
<path d="M2327 5087 c4 -7 -5 -8 -26 -4 -19 4 -30 3 -26 -3 3 -5 -7 -8 -22 -7
-18 1 -27 -3 -25 -11 1 -9 -5 -11 -23 -6 -16 4 -25 2 -25 -5 0 -6 -11 -16 -25
-21 -14 -5 -25 -15 -25 -21 0 -7 -3 -10 -6 -6 -4 3 -11 0 -18 -7 -6 -6 -24
-26 -40 -43 -16 -18 -30 -42 -31 -55 -1 -13 -3 -29 -4 -36 0 -7 -6 -10 -13 -6
-8 5 -9 0 -6 -14 4 -12 2 -24 -3 -28 -5 -3 -7 -22 -5 -43 2 -21 -1 -45 -6 -52
-6 -10 -8 -2 -5 23 3 21 1 36 -3 33 -4 -3 -6 -33 -5 -67 4 -77 4 -78 16 -53 7
15 8 11 4 -17 -3 -21 -1 -39 5 -43 6 -4 9 -13 6 -21 -3 -8 -2 -14 3 -14 5 0
11 -10 15 -22 9 -34 89 -131 136 -163 38 -26 51 -31 105 -35 12 -1 15 -4 7 -7
-12 -5 24 -30 53 -37 45 -12 118 -63 110 -77 -4 -5 0 -9 7 -9 40 0 71 -146 43
-200 -26 -50 -82 -103 -103 -98 -14 4 -19 2 -15 -7 3 -9 -3 -13 -21 -11 -15 2
-29 0 -31 -5 -5 -8 -29 -6 -67 7 -17 5 -18 8 -7 16 10 7 6 8 -13 4 -23 -5 -35
1 -70 34 -24 22 -47 40 -51 40 -5 0 -6 4 -3 9 3 5 -1 11 -9 14 -15 6 -69 -44
-71 -66 -1 -6 -2 -19 -3 -27 -1 -12 -3 -13 -10 -1 -6 10 -13 5 -25 -19 -9 -18
-16 -37 -16 -42 0 -5 26 -35 58 -66 31 -31 56 -61 54 -67 -2 -5 2 -4 9 2 10
10 16 9 31 -4 10 -9 18 -13 18 -9 0 4 7 0 17 -9 11 -12 25 -15 45 -11 20 4 27
2 22 -6 -5 -8 4 -9 33 -6 22 3 47 1 57 -4 9 -5 25 -6 34 -2 9 4 37 9 62 11 68
5 69 5 74 19 3 8 12 11 21 8 8 -3 15 -2 15 3 0 5 14 17 32 28 48 28 85 69 83
93 -1 12 6 24 15 27 15 5 66 101 62 118 -1 4 3 7 9 7 5 0 7 5 3 12 -7 12 -7
43 0 111 2 15 0 27 -3 27 -4 0 -7 10 -8 22 -1 11 -7 24 -14 28 -6 4 -9 12 -6
17 8 12 -42 115 -60 126 -7 5 -11 12 -8 16 5 9 -99 91 -115 91 -6 0 -10 5 -10
11 0 6 -7 9 -15 5 -8 -3 -15 -1 -15 4 0 5 -7 6 -17 3 -11 -5 -14 -3 -8 6 6 10
2 11 -15 6 -17 -5 -21 -4 -15 6 6 9 3 11 -10 6 -9 -4 -24 -2 -31 4 -7 6 -18 8
-24 4 -5 -3 -10 1 -10 9 0 10 -6 13 -17 9 -11 -4 -14 -3 -9 5 4 7 2 12 -5 12
-15 0 -97 88 -105 112 -3 10 -9 18 -14 18 -5 0 -7 14 -3 32 4 22 3 29 -5 24
-7 -4 -12 -1 -12 9 0 10 5 15 14 12 9 -4 12 2 10 23 -3 22 7 38 47 79 28 28
54 49 59 46 5 -3 12 -1 15 5 5 8 11 8 20 0 8 -7 15 -7 19 -1 3 5 15 7 26 4 11
-3 18 -9 15 -13 -2 -4 6 -12 18 -17 12 -6 38 -23 56 -39 33 -27 81 -40 81 -22
0 5 5 6 10 3 6 -3 13 1 16 9 3 9 10 14 14 11 5 -3 13 2 18 11 5 9 11 14 13 13
2 -2 15 4 29 14 13 9 19 17 12 17 -9 0 -11 7 -7 20 5 15 -3 30 -28 55 -19 19
-33 37 -31 40 2 3 1 3 -2 0 -11 -7 -45 15 -39 26 4 5 0 9 -8 9 -8 0 -17 6 -20
13 -2 7 -18 14 -33 15 -16 1 -30 7 -32 12 -2 6 -16 7 -30 4 -21 -4 -24 -3 -12
5 17 12 22 11 -62 16 -32 2 -46 -1 -41 -8z"/>
<path d="M7228 5033 c7 -3 16 -2 19 1 4 3 -2 6 -13 5 -11 0 -14 -3 -6 -6z"/>
<path d="M7346 5022 c-3 -5 -22 -7 -43 -5 -21 2 -52 1 -68 -2 -29 -5 -30 -8
-32 -53 0 -26 -3 -75 -5 -109 -3 -34 -1 -60 3 -57 4 2 6 13 4 24 -2 11 0 20 4
20 9 0 1 -163 -9 -170 -4 -3 -9 -17 -12 -32 -4 -20 -1 -28 9 -28 8 0 11 -5 7
-12 -8 -13 -9 -22 -19 -178 -10 -147 -11 -390 -2 -390 13 0 8 -128 -5 -133
-10 -3 -10 -9 0 -26 8 -14 10 -27 4 -34 -5 -7 -12 -25 -16 -42 -5 -22 -4 -26
4 -15 8 12 10 11 10 -7 0 -13 -4 -23 -9 -23 -5 0 -8 -28 -7 -62 l1 -63 45 3
c29 2 40 0 32 -6 -11 -7 -9 -10 7 -15 12 -3 23 -1 26 3 3 5 14 7 25 5 11 -2
33 1 49 6 23 8 29 16 29 42 0 49 0 209 0 237 0 14 3 59 5 100 3 41 6 101 6
133 l1 57 34 0 c19 0 37 6 39 13 3 7 6 5 6 -5 1 -10 6 -18 12 -18 6 0 9 6 6
14 -7 18 22 14 34 -5 7 -11 9 -10 10 6 0 15 2 16 7 5 8 -16 97 -22 119 -7 6 4
14 3 17 -2 3 -4 27 -9 53 -9 37 0 43 2 28 9 -22 10 78 6 127 -5 15 -3 30 -2
33 4 15 24 21 121 11 166 -6 26 -12 31 -39 31 -18 1 -76 3 -129 5 -54 2 -98 0
-98 -4 0 -4 -8 -8 -17 -8 -14 0 -15 2 -4 9 8 6 -16 8 -63 6 -42 -1 -79 -5 -83
-8 -3 -4 -34 -7 -67 -6 -43 0 -55 3 -41 9 17 7 17 9 3 9 -20 1 -25 21 -5 21 9
0 8 3 -2 9 -9 6 -10 10 -2 16 9 5 9 10 0 21 -8 10 -8 14 0 14 8 0 10 18 7 55
-3 30 -2 55 2 55 5 0 8 17 8 38 2 92 8 172 14 182 4 7 25 10 54 7 52 -4 64 9
14 16 -18 2 -15 3 7 1 176 -14 217 -15 210 -3 -5 7 -3 10 6 7 8 -3 13 -10 12
-15 -1 -5 4 -10 12 -10 8 0 12 4 9 8 -4 7 120 2 143 -6 7 -2 17 4 22 13 6 9
11 13 11 7 0 -14 100 -6 100 8 0 9 2 9 8 0 5 -8 7 104 3 159 -1 4 -7 5 -15 2
-8 -3 -17 -1 -21 5 -3 6 -13 11 -21 11 -8 0 -13 -4 -10 -8 3 -5 -11 -9 -30 -9
-25 0 -33 4 -30 14 3 7 1 13 -4 13 -6 0 -10 -4 -10 -8 0 -4 -30 -7 -67 -6 -47
2 -62 -1 -48 -7 17 -7 15 -8 -10 -6 -16 1 -35 9 -42 17 -6 8 -15 12 -19 7 -4
-4 -2 -7 4 -7 7 0 12 -4 12 -8 0 -5 -12 -7 -27 -6 -16 2 -55 6 -88 9 -33 3
-73 7 -88 8 -15 2 -30 0 -33 -5 -3 -4 -33 -7 -67 -7 -57 2 -59 2 -22 9 l40 7
-37 2 c-20 0 -39 -3 -42 -7z m92 -819 c-10 -2 -28 -2 -40 0 -13 2 -5 4 17 4
22 1 32 -1 23 -4z"/>
<path d="M1140 4999 c0 -11 -4 -18 -9 -14 -5 3 -17 -5 -25 -17 -15 -21 -15
-23 1 -30 10 -3 13 -7 6 -7 -7 -1 -18 -19 -24 -42 -7 -22 -22 -47 -33 -55 -11
-8 -15 -14 -8 -14 6 0 12 -4 12 -10 0 -5 -3 -9 -7 -9 -20 3 -26 -2 -13 -11 10
-6 11 -10 3 -10 -7 0 -13 -7 -13 -16 0 -11 -5 -14 -17 -9 -15 5 -16 4 -5 -6
15 -16 16 -33 1 -23 -8 4 -9 0 -4 -15 5 -16 3 -20 -9 -15 -9 3 -16 2 -16 -4 0
-5 -10 -31 -22 -58 -24 -52 -25 -56 -27 -80 0 -9 -6 -12 -13 -8 -7 4 -8 3 -4
-5 8 -13 -2 -53 -12 -47 -4 2 -8 -8 -9 -22 0 -15 -6 -28 -12 -30 -6 -2 -11
-10 -11 -18 0 -9 -5 -12 -12 -8 -7 5 -8 3 -4 -5 5 -7 1 -18 -9 -25 -10 -7 -17
-25 -17 -39 0 -15 -4 -27 -9 -27 -11 0 -40 -56 -32 -63 3 -4 0 -13 -6 -21 -7
-8 -9 -21 -5 -28 4 -7 4 -10 -1 -6 -12 12 -36 -19 -28 -38 4 -11 3 -15 -4 -11
-6 4 -11 1 -10 -6 1 -34 -4 -48 -15 -41 -8 5 -9 2 -5 -9 4 -12 1 -17 -11 -18
-9 0 -12 -3 -5 -5 8 -4 6 -11 -7 -24 -12 -12 -17 -26 -13 -36 4 -11 3 -15 -5
-10 -16 9 -34 -29 -26 -58 3 -14 1 -27 -7 -31 -8 -6 -10 -4 -5 6 4 8 0 5 -8
-6 -9 -10 -15 -24 -13 -30 2 -5 -3 -15 -11 -21 -8 -6 -16 -26 -17 -45 -2 -18
-8 -35 -14 -37 -6 -2 -9 -8 -5 -13 3 -5 0 -9 -6 -9 -7 0 -10 -6 -7 -14 3 -8 3
-17 -1 -21 -7 -7 -8 -12 -11 -39 0 -8 -8 -16 -16 -18 -9 -2 -11 -8 -7 -15 7
-12 32 -16 72 -12 8 1 29 -2 45 -6 23 -5 26 -4 15 4 -11 8 -5 10 28 7 23 -2
42 1 42 6 0 5 4 7 9 4 5 -3 9 0 8 7 -1 33 4 48 14 41 8 -4 9 1 4 16 -4 13 -3
20 2 17 8 -5 35 40 82 141 11 24 17 51 14 59 -5 12 -3 14 6 8 10 -6 11 -2 6
16 -7 22 -7 23 10 9 17 -14 17 -13 7 6 -10 19 -9 23 9 27 17 5 19 9 10 26 -10
17 -9 20 4 15 11 -5 14 -2 8 12 -4 11 -3 15 4 11 14 -9 34 38 26 60 -3 10 -2
15 2 11 13 -13 65 85 53 100 -8 9 -6 12 6 12 9 0 15 3 15 8 -1 4 0 10 1 15 4
12 7 26 9 38 0 5 6 7 12 3 7 -4 10 -1 7 7 -4 13 0 21 29 53 7 8 9 16 6 20 -4
3 -1 6 6 6 8 0 11 7 7 15 -3 8 -2 15 3 15 5 0 19 29 32 65 12 36 26 65 30 65
3 0 12 -15 19 -32 6 -18 18 -45 26 -59 7 -14 10 -29 6 -33 -4 -4 -2 -6 3 -4
19 6 42 -25 37 -50 -3 -13 0 -27 5 -31 11 -7 73 -136 73 -151 0 -5 9 -14 20
-20 11 -6 20 -16 19 -23 -3 -15 6 -36 69 -168 27 -57 69 -147 93 -201 24 -53
47 -94 52 -91 4 2 7 -3 7 -11 0 -8 5 -18 12 -22 7 -4 8 -3 4 4 -5 9 9 12 49
12 31 0 54 -4 51 -8 -2 -4 9 -8 25 -7 25 0 27 2 13 12 -14 10 -13 12 8 9 13
-1 29 -6 36 -10 7 -4 12 -1 12 9 0 9 5 13 10 10 14 -9 12 1 -5 35 -9 17 -12
30 -9 30 4 0 -1 9 -11 20 -10 11 -15 20 -12 20 3 0 -15 37 -40 82 -24 45 -46
89 -48 99 -5 23 -77 162 -88 170 -6 4 -7 14 -4 23 3 8 2 18 -3 21 -8 5 -91
170 -90 180 0 3 -6 13 -15 21 -8 9 -15 22 -15 29 0 16 -41 88 -52 93 -4 2 -8
12 -8 23 0 10 -5 19 -11 19 -6 0 -8 7 -5 16 3 8 2 12 -4 9 -6 -3 -10 0 -11 7
-2 34 -9 54 -26 68 -10 8 -18 21 -19 28 -2 28 -4 33 -13 28 -5 -3 -11 1 -15 9
-3 8 0 15 7 15 7 0 0 11 -15 25 -15 13 -22 25 -16 27 7 3 6 9 -4 19 -8 8 -13
19 -11 26 2 6 -4 17 -15 25 -19 13 -37 46 -33 62 4 18 -11 46 -26 46 -10 0
-14 6 -10 19 3 12 -1 22 -10 25 -25 10 -33 7 -33 -15z"/>
<path d="M6282 5004 c-22 -24 -42 -82 -35 -100 4 -12 3 -15 -5 -10 -8 5 -12 0
-12 -13 0 -12 -4 -21 -10 -21 -5 0 -10 -6 -10 -14 0 -8 -7 -16 -15 -20 -8 -3
-15 -12 -15 -21 0 -8 -5 -15 -11 -15 -6 0 -9 -9 -6 -20 3 -11 1 -20 -5 -20 -6
0 -7 -8 -4 -17 4 -10 4 -14 0 -10 -8 7 -60 -72 -56 -85 1 -5 -3 -8 -9 -8 -6 0
-8 -9 -4 -21 5 -13 3 -19 -3 -15 -11 7 -25 -21 -17 -34 3 -4 -2 -11 -11 -14
-9 -4 -14 -13 -10 -21 3 -8 1 -15 -4 -15 -6 0 -10 -7 -10 -16 0 -9 -11 -27
-24 -39 -17 -16 -23 -30 -19 -46 3 -14 1 -19 -4 -12 -5 7 -16 -6 -32 -38 -14
-27 -28 -49 -33 -49 -4 0 -5 -7 -2 -15 4 -8 2 -15 -4 -15 -9 0 -20 -26 -18
-41 1 -3 -7 -14 -17 -23 -10 -10 -17 -26 -15 -35 2 -9 -7 -26 -20 -38 -13 -12
-25 -28 -26 -35 -4 -19 -19 -52 -25 -58 -15 -13 -45 -87 -43 -108 0 -12 -3
-20 -7 -17 -5 2 -26 -28 -47 -68 -94 -178 -106 -205 -84 -192 6 3 10 -1 10 -9
0 -11 10 -16 33 -16 25 0 29 3 17 10 -11 8 -2 10 32 8 26 -1 45 -5 42 -10 -8
-12 10 -10 24 4 9 9 13 6 19 -10 8 -21 10 -21 31 -6 15 10 21 22 17 32 -3 9
-3 13 1 9 4 -4 13 1 20 11 9 13 10 20 1 31 -10 12 -9 14 3 9 12 -4 28 18 65
88 26 51 53 90 58 87 6 -3 7 -2 4 4 -3 5 7 37 23 71 16 34 25 62 20 62 -6 0
-10 5 -10 11 0 6 7 8 17 5 10 -4 14 -4 10 0 -4 4 -2 13 4 21 6 7 8 13 3 13 -5
0 -4 4 1 8 6 4 18 19 27 34 13 20 14 28 5 31 -7 3 -5 6 6 6 9 1 17 7 17 15 0
8 7 22 16 30 8 9 12 16 8 16 -4 0 1 9 11 20 10 11 15 20 12 20 -3 0 10 27 29
61 18 33 34 67 34 75 0 8 7 17 15 20 8 4 13 10 10 14 -6 10 44 100 56 100 9 0
12 -13 10 -42 -1 -9 3 -19 9 -23 8 -5 8 -11 0 -20 -10 -11 -8 -13 10 -10 14 3
20 0 17 -8 -6 -17 16 -74 51 -134 17 -28 28 -54 25 -57 -4 -3 -1 -6 6 -6 7 0
10 -4 6 -10 -3 -5 2 -17 12 -27 10 -10 20 -30 22 -43 1 -14 8 -28 13 -31 6 -4
8 -11 5 -16 -3 -5 5 -21 19 -36 13 -14 24 -34 24 -44 0 -10 10 -38 22 -63 11
-25 22 -51 24 -59 1 -8 9 -18 16 -22 7 -5 9 -9 4 -9 -6 0 -5 -5 2 -12 7 -7 12
-19 12 -29 0 -9 9 -28 20 -42 11 -14 20 -32 20 -41 0 -9 5 -16 10 -16 6 0 10
-8 10 -18 0 -44 59 -116 95 -117 6 0 15 -4 22 -8 6 -4 14 -3 18 3 3 5 18 11
33 11 21 2 18 4 -13 9 -39 8 -38 8 15 8 92 -1 91 -1 88 35 -2 42 -8 52 -20 36
-7 -10 -8 -7 -5 10 6 23 -47 148 -68 163 -5 4 -6 10 -3 14 10 9 -21 66 -31 59
-5 -3 -9 6 -10 20 -1 14 -1 36 -2 49 -1 18 -5 23 -17 19 -10 -5 -13 -2 -8 6 5
7 0 21 -10 32 -9 10 -13 19 -9 19 5 0 -1 10 -13 23 -12 13 -19 27 -15 30 3 4
1 7 -6 7 -7 0 -9 4 -6 10 6 10 -18 53 -26 46 -2 -2 -5 5 -5 17 -3 38 -31 100
-55 120 -20 16 -26 31 -28 77 -1 8 -11 31 -23 50 -12 19 -23 42 -25 52 -6 37
-104 229 -113 223 -6 -4 -13 7 -16 25 -4 17 -11 33 -15 36 -5 3 -9 16 -9 30 0
13 -5 24 -11 24 -6 0 -8 7 -5 17 4 9 1 20 -5 24 -7 4 -14 13 -15 21 -6 36 -25
69 -36 62 -7 -5 -9 -2 -5 9 8 20 -15 28 -31 11z"/>
<path d="M2515 4780 c-3 -5 -1 -10 4 -10 6 0 11 5 11 10 0 6 -2 10 -4 10 -3 0
-8 -4 -11 -10z"/>
<path d="M7191 4764 c0 -11 3 -14 6 -6 3 7 2 16 -1 19 -3 4 -6 -2 -5 -13z"/>
<path d="M3200 4756 c0 -9 5 -16 10 -16 6 0 10 4 10 9 0 6 -4 13 -10 16 -5 3
-10 -1 -10 -9z"/>
<path d="M2991 4684 c0 -11 3 -14 6 -6 3 7 2 16 -1 19 -3 4 -6 -2 -5 -13z"/>
<path d="M3912 4593 c0 -33 1 -35 9 -15 5 13 5 30 1 39 -6 10 -9 2 -10 -24z"/>
<path d="M3685 4540 c3 -5 8 -10 11 -10 2 0 4 5 4 10 0 6 -5 10 -11 10 -5 0
-7 -4 -4 -10z"/>
<path d="M3570 4195 c0 -8 2 -15 4 -15 2 0 6 7 10 15 3 8 1 15 -4 15 -6 0 -10
-7 -10 -15z"/>
<path d="M4950 4136 c0 -2 7 -7 16 -10 8 -3 12 -2 9 4 -6 10 -25 14 -25 6z"/>
<path d="M3191 4064 c0 -11 3 -14 6 -6 3 7 2 16 -1 19 -3 4 -6 -2 -5 -13z"/>
<path d="M2448 4063 c7 -3 16 -2 19 1 4 3 -2 6 -13 5 -11 0 -14 -3 -6 -6z"/>
<path d="M7173 3975 c0 -27 2 -38 4 -22 2 15 2 37 0 50 -2 12 -4 0 -4 -28z"/>
<path d="M3255 3990 c-3 -5 -2 -10 4 -10 5 0 13 5 16 10 3 6 2 10 -4 10 -5 0
-13 -4 -16 -10z"/>
<path d="M2195 3940 c3 -5 11 -10 16 -10 6 0 7 5 4 10 -3 6 -11 10 -16 10 -6
0 -7 -4 -4 -10z"/>
<path d="M3970 3895 c0 -8 2 -15 4 -15 2 0 6 7 10 15 3 8 1 15 -4 15 -6 0 -10
-7 -10 -15z"/>
<path d="M8451 3894 c0 -11 3 -14 6 -6 3 7 2 16 -1 19 -3 4 -6 -2 -5 -13z"/>
<path d="M1780 3850 c0 -6 7 -10 15 -10 8 0 15 2 15 4 0 2 -7 6 -15 10 -8 3
-15 1 -15 -4z"/>
<path d="M2973 3805 c0 -8 4 -12 9 -9 4 3 8 9 8 15 0 5 -4 9 -8 9 -5 0 -9 -7
-9 -15z"/>
<path d="M3415 3710 c-3 -5 -1 -10 4 -10 6 0 11 5 11 10 0 6 -2 10 -4 10 -3 0
-8 -4 -11 -10z"/>
<path d="M3860 3676 c0 -2 8 -10 18 -17 15 -13 16 -12 3 4 -13 16 -21 21 -21
13z"/>
<path d="M2935 3660 c3 -5 8 -10 11 -10 2 0 4 5 4 10 0 6 -5 10 -11 10 -5 0
-7 -4 -4 -10z"/>
<path d="M5150 3649 c0 -5 5 -7 10 -4 6 3 10 8 10 11 0 2 -4 4 -10 4 -5 0 -10
-5 -10 -11z"/>
<path d="M5698 3643 c6 -2 18 -2 25 0 6 3 1 5 -13 5 -14 0 -19 -2 -12 -5z"/>
<path d="M2990 3610 c0 -5 5 -10 11 -10 5 0 7 5 4 10 -3 6 -8 10 -11 10 -2 0
-4 -4 -4 -10z"/>
<path d="M4910 3609 c0 -5 5 -7 10 -4 6 3 10 8 10 11 0 2 -4 4 -10 4 -5 0 -10
-5 -10 -11z"/>
<path d="M4320 3601 c0 -6 4 -13 10 -16 6 -3 7 1 4 9 -7 18 -14 21 -14 7z"/>
<path d="M8260 3606 c0 -2 7 -7 16 -10 8 -3 12 -2 9 4 -6 10 -25 14 -25 6z"/>
<path d="M8160 3569 c0 -5 5 -7 10 -4 6 3 10 8 10 11 0 2 -4 4 -10 4 -5 0 -10
-5 -10 -11z"/>
<path d="M4429 3553 c-13 -16 -12 -17 4 -4 9 7 17 15 17 17 0 8 -8 3 -21 -13z"/>
<path d="M4635 3540 c-3 -5 -1 -10 4 -10 6 0 11 5 11 10 0 6 -2 10 -4 10 -3 0
-8 -4 -11 -10z"/>
<path d="M8260 3530 c-6 -11 -8 -20 -6 -20 3 0 10 9 16 20 6 11 8 20 6 20 -3
0 -10 -9 -16 -20z"/>
<path d="M3040 3485 c0 -8 2 -15 4 -15 2 0 6 7 10 15 3 8 1 15 -4 15 -6 0 -10
-7 -10 -15z"/>
<path d="M4940 3488 c0 -4 4 -8 9 -8 6 0 12 4 15 8 3 5 -1 9 -9 9 -8 0 -15 -4
-15 -9z"/>
<path d="M4260 3461 c0 -5 7 -12 16 -15 14 -5 15 -4 4 9 -14 17 -20 19 -20 6z"/>
<path d="M4540 3459 c0 -5 5 -7 10 -4 6 3 10 8 10 11 0 2 -4 4 -10 4 -5 0 -10
-5 -10 -11z"/>
<path d="M8348 3453 c7 -3 16 -2 19 1 4 3 -2 6 -13 5 -11 0 -14 -3 -6 -6z"/>
<path d="M3196 3425 c-9 -26 -7 -32 5 -12 6 10 9 21 6 23 -2 3 -7 -2 -11 -11z"/>
<path d="M8350 3406 c0 -2 7 -6 15 -10 8 -3 15 -1 15 4 0 6 -7 10 -15 10 -8 0
-15 -2 -15 -4z"/>
<path d="M1975 3370 c-3 -5 -1 -10 4 -10 6 0 11 5 11 10 0 6 -2 10 -4 10 -3 0
-8 -4 -11 -10z"/>
<path d="M8257 3353 c-4 -3 -7 -11 -7 -17 0 -6 5 -5 12 2 6 6 9 14 7 17 -3 3
-9 2 -12 -2z"/>
<path d="M6155 3340 c-3 -5 -1 -10 4 -10 6 0 11 5 11 10 0 6 -2 10 -4 10 -3 0
-8 -4 -11 -10z"/>
<path d="M6856 3327 c3 -10 9 -15 12 -12 3 3 0 11 -7 18 -10 9 -11 8 -5 -6z"/>
<path d="M2661 3314 c0 -11 3 -14 6 -6 3 7 2 16 -1 19 -3 4 -6 -2 -5 -13z"/>
<path d="M3059 3303 c-13 -16 -12 -17 4 -4 16 13 21 21 13 21 -2 0 -10 -8 -17
-17z"/>
<path d="M4225 3310 c-3 -5 -1 -10 4 -10 6 0 11 5 11 10 0 6 -2 10 -4 10 -3 0
-8 -4 -11 -10z"/>
<path d="M4167 3285 c3 -8 9 -12 14 -9 12 7 11 11 -5 17 -10 4 -13 1 -9 -8z"/>
<path d="M2410 3279 c0 -5 5 -7 10 -4 6 3 10 8 10 11 0 2 -4 4 -10 4 -5 0 -10
-5 -10 -11z"/>
<path d="M2890 3280 c0 -5 5 -10 11 -10 5 0 7 5 4 10 -3 6 -8 10 -11 10 -2 0
-4 -4 -4 -10z"/>
<path d="M3790 3279 c0 -5 5 -7 10 -4 6 3 10 8 10 11 0 2 -4 4 -10 4 -5 0 -10
-5 -10 -11z"/>
<path d="M6120 3280 c-9 -6 -10 -10 -3 -10 6 0 15 5 18 10 8 12 4 12 -15 0z"/>
<path d="M7516 3274 c-6 -15 -4 -15 11 -3 10 7 20 15 22 16 2 2 -3 3 -11 3 -9
0 -19 -7 -22 -16z"/>
<path d="M2995 3270 c-3 -5 -1 -10 4 -10 6 0 11 5 11 10 0 6 -2 10 -4 10 -3 0
-8 -4 -11 -10z"/>
<path d="M3606 3257 c3 -10 9 -15 12 -12 3 3 0 11 -7 18 -10 9 -11 8 -5 -6z"/>
<path d="M4236 3253 c-6 -14 -5 -15 5 -6 7 7 10 15 7 18 -3 3 -9 -2 -12 -12z"/>
<path d="M3200 3250 c0 -5 5 -10 11 -10 5 0 7 5 4 10 -3 6 -8 10 -11 10 -2 0
-4 -4 -4 -10z"/>
<path d="M6835 3240 c-16 -7 -17 -9 -3 -9 9 -1 20 4 23 9 7 11 7 11 -20 0z"/>
<path d="M2985 3230 c-3 -5 -1 -10 4 -10 6 0 11 5 11 10 0 6 -2 10 -4 10 -3 0
-8 -4 -11 -10z"/>
<path d="M3020 3229 c0 -5 5 -7 10 -4 6 3 10 8 10 11 0 2 -4 4 -10 4 -5 0 -10
-5 -10 -11z"/>
<path d="M3120 3236 c0 -2 8 -10 18 -17 15 -13 16 -12 3 4 -13 16 -21 21 -21
13z"/>
<path d="M3273 3205 c0 -8 4 -12 9 -9 4 3 8 9 8 15 0 5 -4 9 -8 9 -5 0 -9 -7
-9 -15z"/>
<path d="M3725 3211 c3 -5 -2 -12 -10 -14 -12 -4 -12 -5 1 -3 19 1 32 26 14
26 -6 0 -9 -4 -5 -9z"/>
<path d="M5290 3210 c-13 -8 -12 -10 3 -10 9 0 17 5 17 10 0 12 -1 12 -20 0z"/>
<path d="M7627 3209 c7 -7 15 -10 18 -7 3 3 -2 9 -12 12 -14 6 -15 5 -6 -5z"/>
<path d="M2940 3199 c0 -5 5 -7 10 -4 6 3 10 2 10 -3 0 -5 12 -9 27 -9 l26 0
-24 13 c-29 16 -49 18 -49 3z"/>
<path d="M5770 3200 c0 -5 5 -10 11 -10 5 0 7 5 4 10 -3 6 -8 10 -11 10 -2 0
-4 -4 -4 -10z"/>
<path d="M6275 3200 c3 -5 8 -10 11 -10 2 0 4 5 4 10 0 6 -5 10 -11 10 -5 0
-7 -4 -4 -10z"/>
<path d="M2860 3191 c0 -5 5 -13 10 -16 6 -3 10 -2 10 4 0 5 -4 13 -10 16 -5
3 -10 2 -10 -4z"/>
<path d="M3030 3196 c0 -9 30 -14 35 -6 4 6 -3 10 -14 10 -12 0 -21 -2 -21 -4z"/>
<path d="M3870 3196 c0 -2 7 -6 15 -10 8 -3 15 -1 15 4 0 6 -7 10 -15 10 -8 0
-15 -2 -15 -4z"/>
<path d="M2897 3183 c-4 -3 -7 -11 -7 -17 0 -6 5 -5 12 2 6 6 9 14 7 17 -3 3
-9 2 -12 -2z"/>
<path d="M3340 3170 c0 -21 7 -25 27 -12 9 6 7 11 -7 20 -17 11 -20 10 -20 -8z"/>
<path d="M5820 3174 c0 -8 5 -12 10 -9 6 4 8 11 5 16 -9 14 -15 11 -15 -7z"/>
<path d="M2925 3170 c-3 -5 -1 -10 4 -10 6 0 11 5 11 10 0 6 -2 10 -4 10 -3 0
-8 -4 -11 -10z"/>
<path d="M3120 3170 c0 -5 5 -10 10 -10 6 0 10 5 10 10 0 6 -4 10 -10 10 -5 0
-10 -4 -10 -10z"/>
<path d="M3396 3143 c-6 -14 -5 -15 5 -6 7 7 10 15 7 18 -3 3 -9 -2 -12 -12z"/>
<path d="M3595 3150 c-3 -5 1 -10 9 -10 9 0 16 5 16 10 0 6 -4 10 -9 10 -6 0
-13 -4 -16 -10z"/>
<path d="M5741 3144 c0 -11 3 -14 6 -6 3 7 2 16 -1 19 -3 4 -6 -2 -5 -13z"/>
<path d="M8395 3149 c-4 -6 -5 -13 -2 -16 7 -7 27 6 27 18 0 12 -17 12 -25 -2z"/>
<path d="M2865 3140 c-3 -5 -1 -10 4 -10 6 0 11 5 11 10 0 6 -2 10 -4 10 -3 0
-8 -4 -11 -10z"/>
<path d="M3865 3131 c-3 -6 3 -9 14 -8 11 0 17 5 15 9 -7 11 -22 10 -29 -1z"/>
<path d="M6835 3130 c-3 -5 -1 -10 4 -10 6 0 11 5 11 10 0 6 -2 10 -4 10 -3 0
-8 -4 -11 -10z"/>
<path d="M5160 3094 c0 -8 5 -12 10 -9 6 4 8 11 5 16 -9 14 -15 11 -15 -7z"/>
<path d="M3856 3092 c-2 -4 4 -8 14 -8 10 0 16 4 14 8 -3 4 -9 8 -14 8 -5 0
-11 -4 -14 -8z"/>
<path d="M3907 3079 c7 -7 15 -10 18 -7 3 3 -2 9 -12 12 -14 6 -15 5 -6 -5z"/>
<path d="M5065 3080 c4 -6 11 -8 16 -5 14 9 11 15 -7 15 -8 0 -12 -5 -9 -10z"/>
<path d="M4070 3070 c0 -5 5 -10 10 -10 6 0 10 5 10 10 0 6 -4 10 -10 10 -5 0
-10 -4 -10 -10z"/>
<path d="M6265 3060 c-3 -5 -1 -10 4 -10 6 0 11 5 11 10 0 6 -2 10 -4 10 -3 0
-8 -4 -11 -10z"/>
</g>
</svg>
